<svg style="display: none" >
  <symbol id='logo' viewBox="0 0 49 54" xmlns="http://www.w3.org/2000/svg"> 
    <path d="M48.1036 41.1238H23.8375L29.9417 47.2198L23.1592 53.9931L0 31.0908H48.1036V41.1238Z" fill="inherit"/>
    <path d="M48.4752 22.9023H0.371582V12.8693H24.6377L18.5335 6.77334L25.316 0L48.4752 22.9023Z" fill="inherit"/>
  </symbol>

  <symbol id="redo"  viewBox="0 0 16 15" xmlns="http://www.w3.org/2000/svg" >
    <path fill-rule="evenodd" clip-rule="evenodd" d="M5.24038 6.23977C3.60911 6.23977 2.28671 7.56217 2.28671 9.19344C2.28671 10.8247 3.60911 12.1471 5.24038 12.1471H15.5306V14.4338H5.24038C2.3462 14.4338 0 12.0876 0 9.19344C0 6.29926 2.3462 3.95306 5.24038 3.95306H12.958V6.23977H5.24038Z" fill="inherit"/>
    <path fill-rule="evenodd" clip-rule="evenodd" d="M12.4869 5.09605L9.00781 1.61695L10.6248 0L15.7208 5.09605L10.6248 10.1921L9.00781 8.57516L12.4869 5.09605Z" fill="inherit"/>
  </symbol>

  <symbol id='blooming' viewBox="0 0 21 21" xmlns="http://www.w3.org/2000/svg"> 
    <path d="M0.00660515 8.1725V8.25157C-0.0149574 6.09524 0.826012 3.97484 2.40014 2.40072C3.95988 0.84097 6.04434 0 8.17911 0H12.8152C14.95 0 17.0273 0.84097 18.587 2.39353C20.1539 3.96765 20.9877 6.08086 20.9669 8.24438V8.16532V12.8014V12.7224C20.9884 14.8787 20.1475 16.9991 18.5734 18.5732C16.9992 20.1473 14.886 20.9811 12.7225 20.9667H12.8016H8.16545H8.24452C6.08818 20.9883 3.96779 20.1473 2.39367 18.5732C0.819544 16.9991 -0.0142403 14.8859 0.000135422 12.7224V12.8014L0.00732422 8.1725H0.00660515ZM0.25099 10.142C0.229427 10.0557 0.207863 9.97664 0.193487 9.89038C0.207863 9.97664 0.229427 10.0629 0.25099 10.142C0.272552 10.2282 0.28693 10.3073 0.294117 10.4007C0.272554 10.3145 0.265366 10.2282 0.25099 10.142ZM0.00660515 8.35939C0.00660515 8.4097 0.00660515 8.45283 0.013792 8.49595C0.013792 8.45283 0.0137939 8.4097 0.00660515 8.35939ZM0.013792 8.61815C0.013792 8.66846 0.0209808 8.71159 0.0209808 8.75471C0.0209808 8.71159 0.013792 8.66127 0.013792 8.61815ZM0.0281677 8.86972C0.0353565 8.91284 0.0353565 8.96316 0.0425453 8.9991C0.0425453 8.96316 0.0353565 8.92003 0.0281677 8.86972ZM0.135984 9.63881C0.143173 9.68194 0.15036 9.73225 0.164736 9.76819C0.157549 9.73225 0.143173 9.68194 0.135984 9.63881ZM15.5969 4.85175C15.1944 3.94609 14.6337 3.13387 13.9221 2.42228C13.0812 1.58131 12.0677 0.934411 10.9608 0.531896C10.6589 0.416891 10.3283 0.416891 10.0192 0.531896C8.91226 0.934411 7.8916 1.58131 7.05781 2.42228C6.34622 3.13387 5.78558 3.94609 5.38306 4.85175C5.32556 4.97394 5.44775 5.09613 5.56994 5.05301C7.03625 4.56424 8.63912 4.49236 10.1486 4.87331C10.3714 4.93082 10.6014 4.93082 10.8242 4.87331C12.3336 4.49955 13.9365 4.56424 15.4028 5.05301C15.5322 5.10332 15.6544 4.98113 15.5969 4.85175ZM20.693 10.4007C20.7002 10.3145 20.7146 10.2282 20.7362 10.142C20.7577 10.0557 20.7793 9.97664 20.7937 9.89038C20.7721 9.97664 20.7577 10.0557 20.7362 10.142C20.7074 10.2282 20.7002 10.3145 20.693 10.4007ZM20.959 8.50314C20.959 8.45283 20.9662 8.4097 20.9662 8.36657C20.959 8.4097 20.959 8.45283 20.959 8.50314ZM20.8583 9.50943C20.8655 9.4663 20.8727 9.42318 20.8799 9.38005C20.8727 9.43036 20.8655 9.47349 20.8583 9.50943ZM20.9302 9.00629C20.9374 8.96316 20.9374 8.91284 20.9446 8.87691C20.9374 8.92003 20.9302 8.96316 20.9302 9.00629ZM20.9518 8.75471C20.9518 8.7044 20.959 8.66127 20.959 8.61815C20.959 8.66127 20.9518 8.71159 20.9518 8.75471ZM20.7218 10.832C20.7433 10.9182 20.7649 10.9973 20.7793 11.0836C20.7649 10.9973 20.7433 10.911 20.7218 10.832C20.7002 10.7457 20.6858 10.6667 20.6787 10.5732C20.7002 10.6595 20.7074 10.7457 20.7218 10.832ZM20.9669 12.6145C20.9669 12.5642 20.9669 12.5211 20.9597 12.478C20.9597 12.5211 20.9597 12.5642 20.9669 12.6145ZM20.959 12.3558C20.959 12.3055 20.9518 12.2623 20.9518 12.2192C20.9518 12.2623 20.959 12.3127 20.959 12.3558ZM20.9446 12.1042C20.9374 12.0611 20.9374 12.0108 20.9302 11.9748C20.9302 12.0108 20.9374 12.0539 20.9446 12.1042ZM20.8799 11.5867C20.8727 11.5436 20.8655 11.5004 20.8583 11.4573C20.8655 11.5076 20.8727 11.5436 20.8799 11.5867ZM20.8368 11.3351C20.8296 11.292 20.8224 11.2417 20.808 11.2057C20.8152 11.2417 20.8296 11.292 20.8368 11.3351ZM16.1 10.142C16.0425 10.3648 16.0425 10.5948 16.1 10.8176C16.4738 12.327 16.4091 13.9299 15.9203 15.3962C15.8772 15.5256 16.0066 15.6406 16.1216 15.5831C17.0273 15.1806 17.8395 14.6199 18.5511 13.9083C19.392 13.0674 20.0389 12.0539 20.4415 10.947C20.5565 10.6451 20.5565 10.3145 20.4415 10.0054C20.0389 8.89847 19.392 7.8778 18.5511 7.04402C17.8395 6.33243 17.0273 5.77179 16.1216 5.36927C15.9994 5.31177 15.8772 5.43396 15.9203 5.55615C16.4091 7.04402 16.4666 8.63252 16.1 10.142ZM10.8314 20.7224C10.9177 20.7439 10.9967 20.7655 11.083 20.7799C10.9967 20.7655 10.9105 20.7439 10.8314 20.7224C10.7451 20.7008 10.6661 20.6864 10.5726 20.6792C10.6589 20.7008 10.7451 20.708 10.8314 20.7224ZM12.614 20.9667C12.5637 20.9667 12.5205 20.9667 12.4774 20.9596C12.5205 20.9596 12.5637 20.9596 12.614 20.9667ZM12.3552 20.9596C12.3049 20.9596 12.2618 20.9524 12.2186 20.9524C12.2618 20.9524 12.3121 20.9596 12.3552 20.9596ZM12.1036 20.9452C12.0605 20.938 12.0102 20.938 11.9743 20.9308C12.0102 20.9308 12.0533 20.938 12.1036 20.9452ZM11.3345 20.8374C11.2914 20.8302 11.2411 20.823 11.2052 20.8086C11.2411 20.8158 11.2914 20.8302 11.3345 20.8374ZM10.4001 20.6936C10.3139 20.7008 10.2276 20.7152 10.1414 20.7367C10.0551 20.7583 9.97605 20.7799 9.8898 20.7942C9.97605 20.7727 10.0551 20.7583 10.1414 20.7367C10.2276 20.708 10.3139 20.7008 10.4001 20.6936ZM8.50256 20.9596C8.45224 20.9596 8.40912 20.9667 8.36599 20.9667C8.40912 20.9596 8.45224 20.9596 8.50256 20.9596ZM9.50884 20.8589C9.46572 20.8661 9.42259 20.8733 9.37947 20.8805C9.42978 20.8733 9.47291 20.8661 9.50884 20.8589ZM9.0057 20.9308C8.96257 20.938 8.91226 20.938 8.87632 20.9452C8.91945 20.938 8.96257 20.9308 9.0057 20.9308ZM8.75413 20.9524C8.70381 20.9524 8.66069 20.9596 8.61756 20.9596C8.66069 20.9596 8.711 20.9524 8.75413 20.9524ZM5.37587 16.1222C5.77839 17.0278 6.33904 17.8401 7.05063 18.5517C7.89159 19.3926 8.90507 20.0395 10.012 20.442C10.3139 20.557 10.6445 20.557 10.9536 20.442C12.0605 20.0395 13.0812 19.3926 13.915 18.5517C14.6265 17.8401 15.1872 17.0207 15.5897 16.1222C15.6472 16 15.525 15.8778 15.4028 15.9209C13.9365 16.4169 12.3336 16.4816 10.8242 16.1006C10.6014 16.0431 10.3714 16.0431 10.1486 16.1006C8.63912 16.4816 7.03625 16.4097 5.56994 15.9209C5.44056 15.8706 5.31837 15.9928 5.37587 16.1222ZM5.16024 10.9542C5.56276 12.0611 6.20966 13.0818 7.05063 13.9155C7.89159 14.7565 8.90507 15.4034 10.012 15.8059C10.3139 15.9209 10.6445 15.9209 10.9536 15.8059C12.0605 15.4034 13.0812 14.7565 13.915 13.9155C14.7559 13.0818 15.41 12.0683 15.8053 10.9542C15.9203 10.6523 15.9203 10.3216 15.8053 10.0126C15.4028 8.90566 14.7559 7.88499 13.915 7.05121C13.074 6.21743 12.0605 5.56334 10.9536 5.16082C10.6517 5.04582 10.3211 5.04582 10.012 5.16082C8.90507 5.56334 7.88441 6.21024 7.05063 7.05121C6.20966 7.89218 5.56276 8.90566 5.16024 10.0126C5.05961 10.3216 5.05961 10.6523 5.16024 10.9542ZM0.531313 10.9542C0.933828 12.0611 1.58073 13.0818 2.4217 13.9155C3.13329 14.6271 3.94551 15.1878 4.85117 15.5903C4.97336 15.6478 5.09555 15.5256 5.05242 15.4034C4.56365 13.9371 4.49178 12.3342 4.87273 10.8248C4.93023 10.602 4.93023 10.372 4.87273 10.1491C4.49896 8.63971 4.56365 7.03683 5.05242 5.57053C5.09555 5.44115 4.96617 5.32614 4.85117 5.38365C3.94551 5.78616 3.13329 6.34681 2.4217 7.0584C1.58073 7.89937 0.933828 8.91284 0.531313 10.0198C0.423496 10.3216 0.423496 10.6523 0.531313 10.9542ZM0.279741 10.5732C0.272552 10.6595 0.258177 10.7457 0.236614 10.832C0.21505 10.9182 0.193487 10.9973 0.179111 11.0836C0.200676 10.9973 0.21505 10.9182 0.236614 10.832C0.265366 10.7457 0.272552 10.6595 0.279741 10.5732ZM0.013792 12.4708C0.013792 12.5211 0.00660515 12.5642 0.00660515 12.6074C0.0137939 12.5642 0.013792 12.5211 0.013792 12.4708ZM0.114422 11.4645C0.107235 11.5076 0.100046 11.5508 0.0928574 11.5939C0.100046 11.5436 0.107235 11.5076 0.114422 11.4645ZM0.0425453 11.9677C0.0353565 12.0108 0.0353565 12.0611 0.0281677 12.097C0.0353565 12.0539 0.0425453 12.0108 0.0425453 11.9677ZM0.0209808 12.2192C0.0209808 12.2695 0.013792 12.3127 0.013792 12.3558C0.013792 12.3127 0.0209808 12.2623 0.0209808 12.2192Z" fill="inherit"/>
  <symbol>

  <symbol id='buildRight' viewBox="0 0 17 16" xmlns="http://www.w3.org/2000/svg"> 
    <path d="M16.2324 4.73438L10.5293 15.5566H0L2.85156 10.1455H10.1455V4.73438H16.2324ZM10.1455 0V4.73438H5.70312L2.85156 10.1455H0V0H10.1455Z" fill="inherit"/>
  <symbol>

  <symbol id='flowbot' viewBox="0 0 16 16" xmlns="http://www.w3.org/2000/svg"> 
    <path d="M13.0629 2.24122C16.051 5.22955 16.0504 10.0743 13.0622 13.0626C10.0739 16.0506 5.22978 16.0506 2.24152 13.0626C-0.746724 10.0743 -0.74728 5.22955 2.24083 2.24122C5.22915 -0.74709 10.0746 -0.74709 13.0629 2.24122ZM8.89094 2.81463C8.20661 2.13031 7.0971 2.13031 6.41277 2.81463L2.81562 6.41178C2.13129 7.09611 2.13129 8.20562 2.81562 8.88995L6.41277 12.4871C7.0971 13.1714 8.20661 13.1714 8.89094 12.4871L12.4881 8.88995C13.1724 8.20562 13.1724 7.09611 12.4881 6.41178L8.89094 2.81463Z" fill="inherit"/>
  <symbol>

  <symbol id='expor' viewBox="0 0 18 13" xmlns="http://www.w3.org/2000/svg"> 
    <path d="M16.4736 0.989258C16.9602 1.27033 17.2597 1.78963 17.2598 2.35156V10.5C17.2598 11.062 16.9602 11.5812 16.4736 11.8623L14.7588 12.8516L8.62793 9.3125L2.49902 12.8506L0.787109 11.8623C0.30029 11.5812 1.90681e-06 11.0621 0 10.5V2.35156C7.61139e-05 1.78951 0.30035 1.27029 0.787109 0.989258L2.49609 0.00195312V0.00292969L8.62793 3.54395L14.7598 0.00292969V0L16.4736 0.989258Z" fill="inherit"/>
  <symbol>

  <symbol id='productivity' viewBox="0 0 20 30" xmlns="http://www.w3.org/2000/svg">
    <path d="M19.03 11.91C18.76 11.41 18.23 11.09 17.68 11.09H11.75L13.54 1.76C13.59 1.32 13.52 0.93 13.33 0.63C13.17 0.37 12.93 0.18 12.63 0.08C12.46 0.03 12.29 0 12.12 0C11.66 0 11.21 0.19 10.93 0.52L0.280012 14.52C-0.0499883 14.96 -0.0899883 15.54 0.180012 16.07C0.450012 16.57 0.980012 16.89 1.53001 16.89L7.45001 16.94L5.66001 27.5C5.52001 28.34 6.03001 28.87 6.55001 29.08C7.05001 29.29 7.81001 29.28 8.31001 28.61L18.91 13.48C19.25 13.03 19.29 12.44 19.03 11.91ZM17.95 12.81L7.57001 27.75C7.49001 27.88 7.35001 27.95 7.21001 27.95C7.15001 27.95 7.09001 27.94 7.03001 27.91C6.83001 27.83 6.72001 27.63 6.76001 27.42L8.77001 15.8L1.53001 15.76C1.38001 15.76 1.24001 15.67 1.17001 15.53C1.10001 15.4 1.12001 15.23 1.21001 15.11L11.59 1.29C11.72 1.12 11.94 1.06 12.13 1.15C12.33 1.23 12.43 1.43 12.39 1.64L10.39 12.13L17.62 12.18C17.78 12.18 17.91 12.26 17.98 12.39C18.05 12.53 18.04 12.69 17.95 12.81Z" fill="inherit"/>
  </symbol>

  <symbol id='management' viewBox="0 0 30 30" xmlns="http://www.w3.org/2000/svg">
    <path fill-rule="evenodd" clip-rule="evenodd" d="M15 0C6.71 0 0 6.72 0 15C0 18.44 1.16 21.61 3.11 24.14C3.29 24.38 3.48 24.61 3.68 24.84C3.82 24.59 4.03 24.37 4.29 24.23C4.09 24.01 3.91 23.79 3.74 23.56C2.5 21.94 1.61 20.05 1.17 17.99C0.99 17.16 0.88 16.3 0.86 15.43C0.85 15.29 0.85 15.14 0.85 15C0.85 14.93 0.85 14.86 0.86 14.79C0.85 14.72 0.85 14.64 0.86 14.57C0.88 13.7 0.99 12.84 1.17 12.01C2.33 6.6 6.59 2.35 12 1.18C12.83 1 13.69 0.89 14.57 0.87C14.64 0.86 14.72 0.86 14.79 0.87C14.86 0.86 14.93 0.86 15 0.86C15.07 0.86 15.14 0.86 15.21 0.87C15.28 0.86 15.36 0.86 15.43 0.87C16.31 0.89 17.17 1 18 1.18C23.4 2.35 27.65 6.6 28.82 12C29 12.83 29.11 13.69 29.13 14.57C29.14 14.64 29.14 14.72 29.13 14.79C29.14 14.86 29.14 14.93 29.14 15C29.14 15.14 29.14 15.29 29.13 15.43C29.11 16.31 29 17.17 28.82 18C27.65 23.4 23.4 27.65 18 28.82C17.17 29 16.31 29.11 15.43 29.13C15.29 29.14 15.14 29.14 15 29.14C14.86 29.14 14.71 29.14 14.57 29.13C13.69 29.11 12.83 29 12 28.82C10.34 28.46 8.78 27.81 7.4 26.93C7.16 26.77 6.92 26.61 6.69 26.44C6.56 26.71 6.38 26.94 6.14 27.11C6.38 27.28 6.63 27.45 6.88 27.61C9.22 29.12 12 30 15 30C23.28 30 30 23.28 30 15C30 6.72 23.28 0 15 0Z" fill="inherit"/>
    <path fill-rule="evenodd" clip-rule="evenodd" d="M21.1701 6.01C20.3601 3.9 19.2701 2.22 18.0001 1.18C17.0801 0.42 16.0701 0 15.0001 0C13.9301 0 12.9201 0.42 12.0001 1.18C10.3301 2.55 8.96008 5.03 8.13008 8.14C8.05008 8.45 7.98008 8.77 7.91008 9.09C7.67008 10.15 7.50008 11.28 7.40008 12.45C7.37008 12.74 7.34008 13.03 7.33008 13.33C7.45008 13.31 7.58008 13.29 7.71008 13.29C7.88008 13.29 8.04008 13.31 8.19008 13.36C8.20008 13.06 8.23008 12.78 8.26008 12.49C8.37008 11.21 8.57008 9.98 8.85008 8.85C8.92008 8.53 9.00008 8.22 9.09008 7.92C9.42008 6.76 9.84008 5.71 10.3101 4.79C11.5301 2.4 13.0601 1.1 14.5701 0.9C14.6401 0.88 14.7101 0.88 14.7901 0.87C14.8601 0.86 14.9301 0.86 15.0001 0.86C15.0701 0.86 15.1401 0.86 15.2101 0.87C15.2801 0.88 15.3501 0.88 15.4301 0.9C16.9301 1.1 18.4701 2.4 19.6901 4.79C19.9201 5.24 20.1401 5.73 20.3401 6.24C20.4401 6.51 20.5401 6.78 20.6401 7.06C20.8701 6.93 21.1401 6.86 21.4301 6.86H21.4701C21.3801 6.57 21.2801 6.29 21.1701 6.01ZM22.7001 14.57C22.6901 13.31 22.5901 12.1 22.4201 10.94C22.3801 10.64 22.3301 10.34 22.2801 10.05C22.0301 10.2 21.7501 10.29 21.4501 10.29C21.5001 10.57 21.5401 10.85 21.5801 11.13C21.7401 12.23 21.8301 13.38 21.8401 14.57C21.8401 14.71 21.8401 14.86 21.8401 15C21.8401 15.14 21.8401 15.29 21.8401 15.43C21.8201 17.48 21.5701 19.42 21.1501 21.15C21.0801 21.47 20.9901 21.78 20.9101 22.08C20.5701 23.24 20.1601 24.29 19.6901 25.21C18.4701 27.6 16.9301 28.9 15.4301 29.1C15.2801 29.13 15.1401 29.14 15.0001 29.14C14.8601 29.14 14.7101 29.13 14.5701 29.1C13.0601 28.9 11.5301 27.6 10.3101 25.21C9.84008 24.29 9.42008 23.24 9.09008 22.08C9.00008 21.78 8.92008 21.47 8.85008 21.15C8.57008 20.02 8.37008 18.79 8.26008 17.51C8.23008 17.22 8.20008 16.94 8.19008 16.64C8.04008 16.69 7.88008 16.71 7.71008 16.71C7.58008 16.71 7.45008 16.69 7.33008 16.67C7.34008 16.97 7.37008 17.26 7.40008 17.55C7.50008 18.72 7.67008 19.85 7.91008 20.91C7.98008 21.23 8.05008 21.55 8.13008 21.86C8.96008 24.97 10.3301 27.45 12.0001 28.82C12.9201 29.58 13.9301 30 15.0001 30C16.0701 30 17.0801 29.58 18.0001 28.82C19.6701 27.45 21.0301 24.97 21.8601 21.86C21.9401 21.55 22.0201 21.23 22.0901 20.91C22.4601 19.22 22.6801 17.37 22.7001 15.43C22.7101 15.29 22.7101 15.14 22.7101 15C22.7101 14.86 22.7101 14.71 22.7001 14.57Z" fill="inherit"/>
    <path fill-rule="evenodd" clip-rule="evenodd" d="M28.82 12C27.78 10.73 26.1 9.64001 23.99 8.83001C23.71 8.72001 23.43 8.62001 23.14 8.53001V8.57001C23.14 8.86001 23.07 9.13001 22.94 9.37001C23.22 9.46001 23.5 9.56001 23.76 9.66001C24.28 9.86001 24.76 10.08 25.21 10.31C27.6 11.53 28.9 13.07 29.1 14.57C29.11 14.64 29.13 14.72 29.13 14.79C29.14 14.86 29.14 14.93 29.14 15C29.14 15.14 29.13 15.28 29.1 15.43C28.9 16.93 27.6 18.47 25.21 19.69C24.3 20.16 23.25 20.57 22.09 20.91C21.79 20.99 21.47 21.08 21.15 21.15C19.42 21.57 17.48 21.83 15.43 21.85C15.29 21.86 15.15 21.86 15 21.86C14.86 21.86 14.71 21.86 14.57 21.85C12.52 21.83 10.58 21.58 8.85 21.15C8.53 21.08 8.21 21 7.91 20.91C6.75 20.57 5.7 20.16 4.78 19.69C2.4 18.47 1.09 16.93 0.89 15.43C0.86 15.28 0.85 15.14 0.85 15C0.85 14.93 0.85 14.86 0.86 14.79C0.87 14.72 0.87 14.64 0.89 14.57C1.09 13.07 2.4 11.53 4.78 10.31C5.7 9.84001 6.75 9.43001 7.91 9.09001C8.21 9.00001 8.53 8.92001 8.85 8.85001C10.58 8.42001 12.52 8.17001 14.57 8.15001C14.71 8.14001 14.86 8.14001 15 8.14001C15.15 8.14001 15.29 8.14001 15.43 8.15001C16.62 8.15001 17.77 8.25001 18.86 8.42001C19.15 8.45001 19.43 8.49001 19.71 8.55001C19.71 8.25001 19.8 7.96001 19.94 7.72001C19.65 7.66001 19.35 7.62001 19.05 7.58001C17.89 7.41001 16.68 7.31001 15.43 7.30001C15.29 7.29001 15.14 7.29001 15 7.29001C14.86 7.29001 14.71 7.29001 14.57 7.30001C12.62 7.32001 10.78 7.54001 9.09 7.92001C8.76 7.98001 8.44 8.06001 8.13 8.14001C5.01 8.97001 2.54 10.34 1.17 12.01C0.42 12.93 0 13.94 0 15C0 16.06 0.42 17.07 1.17 17.99C2.54 19.66 5.01 21.03 8.13 21.86C8.44 21.94 8.76 22.02 9.09 22.08C10.78 22.46 12.62 22.68 14.57 22.7C14.71 22.71 14.86 22.71 15 22.71C15.14 22.71 15.29 22.71 15.43 22.7C17.37 22.68 19.22 22.46 20.91 22.08C21.23 22.02 21.55 21.94 21.86 21.86C24.97 21.03 27.45 19.67 28.82 18C29.58 17.08 30 16.06 30 15C30 13.94 29.58 12.92 28.82 12Z" fill="inherit"/>
    <path fill-rule="evenodd" clip-rule="evenodd" d="M21.4301 6C21.3401 6 21.2501 6 21.1701 6.01C20.8701 6.04 20.5901 6.12 20.3401 6.24C19.7601 6.51 19.3001 6.99 19.0501 7.58C18.9401 7.84 18.8701 8.12 18.8601 8.42C18.8501 8.47 18.8501 8.52 18.8501 8.57C18.8501 9.99 20.0101 11.14 21.4301 11.14C21.4801 11.14 21.5301 11.14 21.5801 11.13C21.8801 11.12 22.1601 11.05 22.4201 10.94C23.0101 10.7 23.4901 10.24 23.7601 9.66C23.8801 9.41 23.9601 9.13 23.9901 8.83C24.0001 8.74 24.0001 8.66 24.0001 8.57C24.0001 7.15 22.8501 6 21.4301 6ZM23.1401 8.57C23.1401 8.86 23.0701 9.13 22.9401 9.37C22.7901 9.66 22.5601 9.9 22.2801 10.05C22.0301 10.2 21.7501 10.29 21.4501 10.29H21.4301C20.4801 10.29 19.7101 9.52 19.7101 8.57V8.55C19.7101 8.25 19.8001 7.96 19.9401 7.72C20.1001 7.43 20.3401 7.2 20.6401 7.06C20.8701 6.93 21.1401 6.86 21.4301 6.86H21.4701C22.3801 6.88 23.1201 7.61 23.1401 8.53V8.57Z" fill="inherit"/>
    <path fill-rule="evenodd" clip-rule="evenodd" d="M5.13982 23.14C4.61982 23.14 4.13982 23.29 3.73982 23.56C3.49982 23.71 3.27982 23.91 3.10982 24.14C2.76982 24.58 2.56982 25.12 2.56982 25.71C2.56982 27.13 3.71982 28.29 5.13982 28.29C5.80982 28.29 6.41982 28.03 6.87982 27.61C7.08982 27.42 7.25982 27.19 7.39982 26.93C7.59982 26.56 7.70982 26.15 7.70982 25.71C7.70982 24.29 6.55982 23.14 5.13982 23.14ZM6.13982 27.11C5.85982 27.31 5.51982 27.43 5.13982 27.43C4.18982 27.43 3.42982 26.66 3.42982 25.71C3.42982 25.39 3.51982 25.1 3.67982 24.84C3.81982 24.59 4.02982 24.37 4.28982 24.23C4.53982 24.08 4.82982 24 5.13982 24C6.08982 24 6.84982 24.77 6.84982 25.71C6.84982 25.97 6.78982 26.22 6.68982 26.44C6.55982 26.71 6.37982 26.94 6.13982 27.11Z" fill="inherit"/>
    <path fill-rule="evenodd" clip-rule="evenodd" d="M6.05982 14.57C6.01982 14.71 5.99982 14.85 5.99982 15C5.99982 15.15 6.01982 15.29 6.05982 15.43H0.569824V14.57H6.05982Z" fill="inherit"/>
    <path fill-rule="evenodd" clip-rule="evenodd" d="M29.7101 14.57V15.43H9.37012C9.41012 15.29 9.43012 15.15 9.43012 15C9.43012 14.85 9.41012 14.71 9.37012 14.57H29.7101Z" fill="inherit"/>
    <path fill-rule="evenodd" clip-rule="evenodd" d="M14.5703 29.57V0.429993H15.4303V29.57H14.5703Z" fill="inherit"/>
    <path fill-rule="evenodd" clip-rule="evenodd" d="M10.2401 14.57C10.0701 13.53 9.28014 12.71 8.26014 12.49C8.08014 12.45 7.90014 12.43 7.71014 12.43C7.60014 12.43 7.50014 12.44 7.40014 12.45C6.27014 12.59 5.36014 13.46 5.18014 14.57C5.15014 14.71 5.14014 14.85 5.14014 15C5.14014 15.15 5.15014 15.29 5.18014 15.43C5.36014 16.54 6.27014 17.41 7.40014 17.55C7.50014 17.56 7.60014 17.57 7.71014 17.57C7.90014 17.57 8.08014 17.55 8.26014 17.51C9.28014 17.29 10.0701 16.47 10.2401 15.43C10.2701 15.29 10.2801 15.15 10.2801 15C10.2801 14.85 10.2701 14.71 10.2401 14.57ZM8.19014 16.64C8.04014 16.69 7.88014 16.71 7.71014 16.71C7.58014 16.71 7.45014 16.69 7.33014 16.67C6.71014 16.52 6.21014 16.05 6.06014 15.43C6.02014 15.29 6.00014 15.15 6.00014 15C6.00014 14.85 6.02014 14.71 6.06014 14.57C6.21014 13.95 6.71014 13.48 7.33014 13.33C7.45014 13.31 7.58014 13.29 7.71014 13.29C7.88014 13.29 8.04014 13.31 8.19014 13.36C8.77014 13.52 9.22014 13.99 9.37014 14.57C9.41014 14.71 9.43014 14.85 9.43014 15C9.43014 15.15 9.41014 15.29 9.37014 15.43C9.22014 16.01 8.77014 16.48 8.19014 16.64Z" fill="inherit"/>
</symbol>

<symbol id='technology' viewBox="0 0 24 29" xmlns="http://www.w3.org/2000/svg">
  <path d="M23.64 4.32L12.55 0.060005C12.36 -0.00999501 12.14 -0.019995 11.95 0.060005L0.19 4.37C0.07 4.45 0 4.57 0 4.7V17.49C0 20.25 1.14 22.44 3.2 23.67L11.7 28.73C11.86 28.83 12.07 28.83 12.24 28.73L20.73 23.67C22.8 22.44 23.93 20.25 23.93 17.49V4.71C23.93 4.54 23.82 4.39001 23.64 4.32ZM22.97 17.49C22.97 18.92 22.61 21.53 20.2 22.96L11.97 27.87L3.74 22.96H3.73L3.51 22.83C1.3 21.36 0.96 18.87 0.96 17.49V4.99L12.25 0.760005L22.97 4.99V17.49Z" fill="inherit"/>
  <path d="M17.59 10.65C17.59 10.76 17.54 10.86 17.46 10.94L11.1 16.96C10.92 17.13 10.59 17.13 10.4 16.96L7.08996 13.83C7.00996 13.75 6.95996 13.64 6.95996 13.53C6.95996 13.43 7.00996 13.32 7.08996 13.24C7.18996 13.15 7.31996 13.11 7.43996 13.11C7.56996 13.11 7.69996 13.15 7.79996 13.24L10.75 16.04L16.76 10.36C16.95 10.18 17.27 10.18 17.46 10.36C17.54 10.44 17.59 10.54 17.59 10.65Z" fill="inherit"/>
</symbol>
</svg>